<svg xmlns="http://www.w3.org/2000/svg" xmlns:xlink="http://www.w3.org/1999/xlink" version="1.1" id="Your_Icon" x="0px" y="0px" width="100px" height="100px" viewBox="0 0 100 100" enable-background="new 0 0 100 100" xml:space="preserve">
<g>
	<path fill="#777777" d="M92.489,14.705c-0.77-0.39-1.696-0.084-2.085,0.679c-3.969,7.806-7.123,7.317-12.35,6.521   c-3.248-0.497-7.289-1.114-12.139,0.37c-2.586,0.793-4.882,2.757-6.768,4.938l-4.006-4.004H41.976l-35.102,35.1l26.33,26.327   l35.1-35.098V36.371l-6.948-6.95c1.616-1.921,3.495-3.571,5.471-4.178c4.172-1.282,7.678-0.745,10.76-0.273   c5.456,0.837,10.602,1.625,15.581-8.181C93.556,16.026,93.252,15.093,92.489,14.705 M45.114,52.634   c-0.743-0.849-2.128-2.458-4.824-3.618c-2.424-1.038-3.673-0.294-4.118,0.755c-0.519,1.196,0.44,2.575,3.15,5.113   c3.778,3.479,4.655,6.287,3.198,9.687c-1.431,3.325-4.963,5.166-9.566,4.036L31.3,72.455l-3.693-1.588l1.521-3.551   c-2.46-1.185-4.578-2.939-5.666-4.334l2.998-3.88c1.202,1.524,3.067,3.256,5.495,4.302c2.168,0.924,3.996,0.694,4.62-0.763   c0.612-1.423-0.206-2.828-2.601-4.967c-3.423-3.057-5.349-6.096-3.793-9.72c1.424-3.325,4.849-4.909,9.163-3.938l1.521-3.551   l3.659,1.569L43.12,45.32c2.43,1.136,3.872,2.417,4.926,3.574L45.114,52.634z M59.529,31.98c2.422,2.425,2.422,6.357,0,8.778   c-1.215,1.209-2.799,1.815-4.387,1.815s-3.178-0.606-4.388-1.819c-2.423-2.419-2.423-6.35,0-8.775   c1.21-1.211,2.798-1.813,4.383-1.813c0.538,0,1.074,0.094,1.6,0.232c-0.703,1.054-1.297,2.058-1.768,2.903   c-0.76,0.04-1.479,0.33-2.021,0.872c-0.588,0.585-0.909,1.364-0.909,2.194c0,0.832,0.321,1.606,0.903,2.193   c0.591,0.589,1.369,0.91,2.199,0.91c0.831,0,1.606-0.321,2.193-0.91c0.586-0.581,0.91-1.362,0.91-2.19   c0-0.594-0.219-1.136-0.528-1.623c0.485-0.87,1.075-1.839,1.743-2.828C59.478,31.945,59.506,31.961,59.529,31.98"/>
</g>
</svg>