<svg xmlns="http://www.w3.org/2000/svg" xmlns:xlink="http://www.w3.org/1999/xlink" version="1.1" id="Your_Icon" x="0px" y="0px" width="100px" height="100px" viewBox="0 0 100 100" style="enable-background:new 0 0 100 100;" xml:space="preserve">
	<path fill="#777777" d="M49.994,0.007c-27.612,0-50,22.384-50,50.001c0,27.604,22.388,50,50,50c27.61,0,49.998-22.396,49.998-50  C99.992,22.391,77.604,0.007,49.994,0.007z M33.619,78.628c-6.477,0-11.718-5.248-11.718-11.719c0-6.473,5.241-11.719,11.718-11.719  c6.472,0,11.713,5.246,11.713,11.719C45.332,73.38,40.091,78.628,33.619,78.628z M58.554,71.532c-2.552,0-4.622-2.071-4.622-4.623  c-0.012-11.225-9.094-20.312-20.312-20.326c-2.552,0-4.628-2.07-4.628-4.636c0-2.539,2.076-4.596,4.628-4.596  c16.314,0,29.546,13.229,29.558,29.558C63.177,69.461,61.105,71.532,58.554,71.532z M76.973,71.532  c-2.545,0-4.616-2.071-4.616-4.623c-0.039-21.42-17.35-38.725-38.749-38.764l0,0c-2.54,0-4.616-2.069-4.616-4.622  c0-2.552,2.076-4.609,4.616-4.609c26.509,0,47.98,21.484,47.995,47.995C81.603,69.461,79.524,71.532,76.973,71.532z"/>
</svg>