<svg xmlns="http://www.w3.org/2000/svg" xmlns:xlink="http://www.w3.org/1999/xlink" version="1.1" id="Layer_1" x="0px" y="0px" width="100px" height="100px" viewBox="0 0 100 100" enable-background="new 0 0 100 100" xml:space="preserve">
<circle fill="#777777" cx="68.333" cy="20.186" r="7.497"/>
<path fill="#777777" d="M76.035,30.852H64.707c0.471,0.889,0.74,1.9,0.74,2.975v20.522h-0.074c-0.323,2.122-1.696,3.902-3.57,4.796  v24.07c0,2.049,1.66,3.709,3.711,3.709h5.639c2.052,0,3.712-1.66,3.712-3.709V58.127c0-0.089-0.007-0.176-0.013-0.264h1.181  c2.656,0,4.813-2.155,4.813-4.813h0.001V35.665C80.845,33.006,78.692,30.852,76.035,30.852z"/>
<circle fill="#777777" cx="85.559" cy="20.186" r="7.497"/>
<path fill="#777777" d="M93.26,30.852H81.932c0.471,0.889,0.74,1.9,0.74,2.975v20.522h-0.074c-0.323,2.122-1.696,3.902-3.57,4.796  v24.07c0,2.049,1.66,3.709,3.711,3.709h5.639c2.053,0,3.713-1.66,3.713-3.709V58.127c0-0.089-0.008-0.176-0.014-0.264h1.181  c2.657,0,4.813-2.155,4.813-4.813h0.001V35.665C98.071,33.006,95.917,30.852,93.26,30.852z"/>
<circle fill="#777777" cx="32.482" cy="20.186" r="7.497"/>
<path fill="#777777" d="M35.37,53.386v-19.56c0-1.074,0.27-2.085,0.741-2.975H24.784c-2.659,0-4.813,2.154-4.813,4.813v17.386  c0,2.657,2.154,4.813,4.811,4.813h1.182c-0.006,0.088-0.014,0.175-0.014,0.264v25.088c0,2.049,1.661,3.709,3.711,3.709h5.64  c2.052,0,3.712-1.66,3.712-3.709V59.139C36.863,58.113,35.37,55.923,35.37,53.386z"/>
<circle fill="#777777" cx="15.582" cy="20.186" r="7.497"/>
<path fill="#777777" d="M18.47,53.386v-19.56c0-1.074,0.27-2.085,0.74-2.975H7.884c-2.659,0-4.813,2.154-4.813,4.813v17.386  c0,2.657,2.154,4.813,4.811,4.813h1.182c-0.006,0.088-0.014,0.175-0.014,0.264v25.088c0,2.049,1.661,3.709,3.711,3.709h5.639  c2.052,0,3.712-1.66,3.712-3.709V59.139C19.963,58.113,18.47,55.923,18.47,53.386z"/>
<path fill="#777777" d="M50.407,27.658c4.12,0,7.471-3.352,7.471-7.473c0-4.12-3.352-7.472-7.471-7.472  c-4.12,0-7.473,3.352-7.473,7.472C42.935,24.306,46.287,27.658,50.407,27.658z"/>
<path fill="#777777" d="M63.522,33.827c0-1.144-0.437-2.185-1.148-2.975c-0.814-0.905-1.991-1.478-3.302-1.478H41.747  c-1.311,0-2.488,0.573-3.303,1.478c-0.711,0.79-1.149,1.831-1.149,2.975v19.56c0,2.221,1.636,4.063,3.765,4.394  c0.224,0.035,0.452,0.059,0.686,0.059h2.362l-0.073,1.03c-0.007,0.102-0.013,0.164-0.013,0.229v28.225  c0,1.771,1.441,3.211,3.212,3.211h6.344c1.772,0,3.214-1.439,3.214-3.211V59.097c0-0.067-0.006-0.134-0.011-0.2l-0.075-1.033  l1.033-0.025h1.329c0.233,0,0.462-0.023,0.686-0.059c2.13-0.331,3.766-2.173,3.766-4.394L63.522,33.827z"/>
</svg>