<svg xmlns="http://www.w3.org/2000/svg" xmlns:xlink="http://www.w3.org/1999/xlink" version="1.1" id="Capa_1" x="0px" y="0px" width="100px" height="100px" viewBox="0 0 100 100" enable-background="new 0 0 100 100" xml:space="preserve">
<g>
	<polygon fill="#777777" points="23.407,52.012 20.382,53.858 20.382,56.667 23.407,54.824  "/>
	<polygon fill="#777777" points="23.407,48.234 20.382,50.079 20.382,52.89 23.407,51.043  "/>
	<polygon fill="#777777" points="23.407,44.458 20.382,46.302 20.382,49.117 23.407,47.271  "/>
	<polygon fill="#777777" points="23.407,40.683 20.382,42.526 20.382,45.338 23.407,43.493  "/>
	<polygon fill="#777777" points="23.407,36.906 20.382,38.75 20.382,41.562 23.407,39.719  "/>
	<polygon fill="#777777" points="61.203,66.251 56.87,68.894 56.87,72.917 61.203,70.275  "/>
	<polygon fill="#777777" points="61.203,60.843 56.87,63.484 56.87,67.51 61.203,64.866  "/>
	<polygon fill="#777777" points="61.203,55.44 56.87,58.079 56.87,62.106 61.203,59.464  "/>
	<polygon fill="#777777" points="61.203,50.035 56.87,52.675 56.87,56.699 61.203,54.058  "/>
	<polygon fill="#777777" points="61.203,44.629 56.87,47.268 56.87,51.293 61.203,48.653  "/>
	<polygon fill="#777777" points="61.203,39.223 56.87,41.863 56.87,45.887 61.203,43.247  "/>
	<polygon fill="#777777" points="61.203,33.816 56.87,36.458 56.87,40.481 61.203,37.84  "/>
	<path fill="#777777" d="M84.418,23.031l-12.146,7.138v0.059v31.574l4.049,2.512l-8.93,5.581V25.052L50,14.837L32.609,25.053v0.086   v43.591l-7.959-4.975l3.079-1.896V30.167l-12.147-7.135L3.434,30.168v0.059v31.574l12.148,7.531h0.002l5.705-3.51l11.321,7.074   v7.366L50,91.046h0.002l17.389-10.693v-6.288l12.28-7.674l4.747,2.942h0.002l12.146-7.474V30.167L84.418,23.031z M6.563,30.665   l9.021-5.298l9.024,5.294l-9.021,5.503L6.563,30.665z M20.382,57.905v6.248l-3.469,2.114V38.385l9.362-5.71v27.884l-2.869,1.749   V56.06L20.382,57.905z M50,34.214l-13.855-8.45L50,17.626l13.854,8.138L50,34.214z M65.309,79.442l-4.104,2.504v-9.898   l-4.333,2.643v9.9l-4.963,3.027V36.442l13.399-8.174V79.442z M75.398,30.665l9.021-5.298l9.022,5.294l-9.021,5.503L75.398,30.665z    M95.111,60.559l-2.866,1.749V56.06l-3.024,1.846v6.247l-3.47,2.115V38.385l9.36-5.71V60.559z"/>
	<polygon fill="#777777" points="92.245,52.012 89.221,53.858 89.221,56.667 92.245,54.824  "/>
	<polygon fill="#777777" points="92.245,48.234 89.221,50.079 89.221,52.89 92.245,51.043  "/>
	<polygon fill="#777777" points="92.245,44.458 89.221,46.302 89.221,49.117 92.245,47.271  "/>
	<polygon fill="#777777" points="92.245,40.683 89.221,42.526 89.221,45.338 92.245,43.493  "/>
	<polygon fill="#777777" points="92.245,36.906 89.221,38.75 89.221,41.562 92.245,39.719  "/>
</g>
</svg>