<svg xmlns="http://www.w3.org/2000/svg" xmlns:xlink="http://www.w3.org/1999/xlink" version="1.1" id="Layer_1" x="0px" y="0px" width="60px" height="60px" viewBox="0 0 60 60" enable-background="new 0 0 60 60" xml:space="preserve">
<g>
	<circle fill="#777777" cx="29.715" cy="44.038" r="7.187"/>
	<path fill="#777777" d="M58.386,23.275c-0.062-0.085-0.128-0.168-0.19-0.253C51.806,14.387,41.566,8.775,30,8.775h0   c-11.566,0-21.806,5.612-28.195,14.247c-0.062,0.085-0.128,0.168-0.19,0.253c-0.041,0.092-0.065,0.192-0.065,0.301   c0,0.143,0.051,0.269,0.12,0.382l0.193,0.21L6.108,28.8c0.063,0.156,0.183,0.275,0.328,0.357c0.109,0.063,0.229,0.108,0.363,0.108   c0.198,0,0.375-0.081,0.509-0.205c0.05-0.07,0.099-0.138,0.149-0.206C12.438,22.103,20.665,17.672,30,17.672   c9.336,0,17.562,4.43,22.542,11.182c0.05,0.068,0.1,0.136,0.149,0.206c0.134,0.124,0.311,0.205,0.509,0.205   c0.135,0,0.254-0.045,0.363-0.108c0.145-0.082,0.264-0.201,0.328-0.357l4.246-4.632l0.193-0.21c0.069-0.114,0.12-0.239,0.12-0.382   C58.451,23.467,58.426,23.367,58.386,23.275z"/>
	<path fill="#777777" d="M48.447,32.389c-3.995-4.966-10.74-8.246-18.42-8.246c-7.681,0-14.425,3.279-18.42,8.246   c-0.098,0.122-0.196,0.243-0.291,0.369c-0.027,0.076-0.049,0.155-0.049,0.241c0,0.1,0.021,0.195,0.057,0.283   c0.066,0.161,0.192,0.288,0.345,0.369l4.075,4.371l0.113,0.122c0.129,0.108,0.29,0.18,0.472,0.18c0.115,0,0.221-0.031,0.318-0.078   c0.031-0.013,0.055-0.037,0.083-0.056c0.061-0.04,0.116-0.083,0.163-0.138c0.01-0.012,0.027-0.019,0.037-0.031   c2.158-2.713,7.057-5.836,13.097-5.836s10.938,3.123,13.096,5.836c0.009,0.012,0.027,0.019,0.037,0.031   c0.047,0.055,0.103,0.098,0.163,0.138c0.029,0.019,0.052,0.043,0.083,0.056c0.098,0.047,0.204,0.078,0.318,0.078   c0.182,0,0.342-0.072,0.472-0.18l0.113-0.122l4.075-4.371c0.153-0.082,0.278-0.208,0.345-0.369   c0.036-0.088,0.057-0.183,0.057-0.283c0-0.085-0.022-0.165-0.049-0.241C48.643,32.632,48.545,32.511,48.447,32.389z"/>
</g>
</svg>