<svg xmlns="http://www.w3.org/2000/svg" xmlns:xlink="http://www.w3.org/1999/xlink" version="1.1" x="0px" y="0px" width="90px" height="90px" viewBox="0 0 100 100" enable-background="new 0 0 100 100" xml:space="preserve">
<g id="Ethernet">
	<path fill="#777777" d="M40.052,26.288c-3.801,0-7.054-2.288-8.413-5.288h-1.093H26v4.264v9.535c0,2.23,0.79,3.746,1.566,5.849l4.307,9.441   C32.264,51.139,33.604,52,34.771,52h10.562c1.164,0,2.427-0.861,2.815-1.912l4.337-9.437C53.262,38.549,54,37.029,54,34.799v-9.535   V21h-4.442h-1.093C47.104,24,43.851,26.288,40.052,26.288z"/>
	<rect fill="#777777" x="41" width="2" height="2"/>
	<rect fill="#777777" x="45" width="2" height="2"/>
	<polygon fill="#777777" points="50,4 47,4 47,12 45,12 45,18 52,18 52,0 50,0 50,2.105  "/>
	<path fill="#777777" d="M45,4H35v6h2v13.329c0,0,0.942,1.062,3.064,1.062S43,23.329,43,23.329V10h2V4z"/>
	<polygon fill="#777777" points="28,18 35,18 35,12 33,12 33,4 30,4 30,2.105 30,0 28,0  "/>
	<rect fill="#777777" x="37" width="2" height="2"/>
	<rect fill="#777777" x="33" width="2" height="2"/>
	<path fill="#777777" d="M60,99.667c-12.683,0-23-9.421-23-21V56h6v22.667c0,8.271,7.626,15,17,15s17-7.626,17-17V54c0-12.682,10.317-23,23-23v6   c-9.374,0-17,7.626-17,17v22.667C83,89.35,72.683,99.667,60,99.667z"/>
</g>
</svg>