<svg width="100" height="100" xmlns="http://www.w3.org/2000/svg">
  <g id="Layer_1">
    <path fill="#777777" id="svg_2" d="m37.806,47.048c2.583,0.773998 10.932999,0.908001 16.389,0.908001c1.597,0 2.949001,-0.012001 3.831001,-0.021c1.733997,-0.02 3.125999,-1.445 3.104,-3.179001c-0.019001,-1.723 -1.421001,-3.105999 -3.139999,-3.105999c-0.013,0 -0.024002,0 -0.036003,0c-7.531998,0.086998 -16.688,-0.126003 -18.34,-0.621002c-1.479,-0.562 -3.472,-6.864998 -4.321999,-9.556c-0.118,-0.372 -0.230999,-0.726 -0.347,-1.087c-0.014,-2.580999 -1.211998,-5.121 -3.470999,-6.741999c-3.745001,-2.687 -8.958,-1.834002 -11.649,1.91c-16.533001,23.009998 -14.794001,29.524998 -14.140001,31.978001c0.803,3.008999 3.16,5.167999 5.974,5.903c0.52,0.253998 1.096,0.409 1.712,0.409c0.014999,0 0.026999,0 0.039,0c11.486,-0.119003 19.033001,1.906998 22.410999,5.995995c3.623001,4.387001 2.207001,11.385002 1.07,17.009003c-0.448997,2.214005 -0.870998,4.303001 -0.969997,6.126999c-0.120003,2.167 1.539997,4.018005 3.705997,4.136002c0.072002,0.004997 0.145,0.004997 0.218002,0.004997c2.07,0 3.801998,-1.617996 3.917,-3.712997c0.07,-1.251999 0.438,-3.07 0.827,-4.997002c1.389999,-6.874001 3.297001,-16.292999 -2.713001,-23.567001c-3.913998,-4.738995 -10.460999,-7.537998 -19.837999,-8.483997c0.068001,-0.575001 0.083,-1.161999 0.028,-1.753998c0.698999,-2.607002 4.542,-9.381001 9.007,-15.979c1.532999,4.042 3.475,7.446999 6.733,8.424999z"/>
    <circle fill="#777777" id="svg_3" r="11.375" cy="13.129" cx="42.931"/>
    <path fill="#777777" id="svg_4" d="m69.203003,51.567001l-12.567001,0c-1.301003,0 -2.354,1.795998 -2.354,3.097c0,1.299999 1.053997,3.098 2.354,3.098l12.567001,0c1.300995,0 2.354996,-1.798 2.354996,-3.098c0.000999,-1.301003 -1.054001,-3.097 -2.354996,-3.097z"/>
    <path fill="#777777" id="svg_5" d="m82.468002,35.798c-0.005005,-0.013 -0.014,-0.024002 -0.019005,-0.035l8.649002,-20.443001c0.845001,-1.997999 -0.088997,-4.304 -2.084999,-5.146999c-1.997002,-0.842 -4.303001,0.087999 -5.147003,2.085l-12.475998,29.489001c-0.847,2.000999 0.087997,4.304996 2.084999,5.148998c0.498001,0.209999 1.019005,0.312 1.528999,0.312c1.528999,0 2.983002,-0.901001 3.617004,-2.397999l1.436996,-3.396l4.432999,10.152l-7.433998,0c-1.302002,0 -2.353996,1.795998 -2.353996,3.096996c0,1.300003 1.052994,3.098003 2.353996,3.098003l14.558998,0l-9.147995,-21.963001z"/>
  </g>
  <g display="none" id="nyt_x5F_exporter_x5F_info"/>
</svg>